<?xml version="1.0" encoding="utf-8"?>
<!-- Generator: Adobe Illustrator 24.3.0, SVG Export Plug-In . SVG Version: 6.00 Build 0)  -->
<svg version="1.1" id="图层_1" xmlns="http://www.w3.org/2000/svg" xmlns:xlink="http://www.w3.org/1999/xlink" x="0px" y="0px"
	 viewBox="0 0 415 520" style="enable-background:new 0 0 415 520;" xml:space="preserve">
<style type="text/css">
	.st0{fill-rule:evenodd;clip-rule:evenodd;fill:#0000FF;stroke:#000000;stroke-width:12.5;stroke-miterlimit:4;}
	.st1{fill-rule:evenodd;clip-rule:evenodd;fill:#FFFF00;}
	.st2{fill-rule:evenodd;clip-rule:evenodd;fill:#00FF00;}
	.st3{fill:none;stroke:#000000;stroke-width:12.5;stroke-miterlimit:4;}
	.st4{fill-rule:evenodd;clip-rule:evenodd;fill:#FF0000;stroke:#000000;stroke-width:19.258;stroke-linejoin:round;}
	.st5{fill-rule:evenodd;clip-rule:evenodd;fill:#FF5400;stroke:#000000;stroke-width:19.258;stroke-linejoin:round;}
	.st6{fill:none;stroke:#000000;stroke-width:10;stroke-miterlimit:4;}
</style>
<g transform="matrix(.87777 -.47909 .47909 .87777 -331.19 32.912)">
	<g transform="translate(-109.1 .80432)">
		<path class="st0" d="M462.6,331.3c0,0,35.5-167.2-14.4-125.4c-34.4,28.9-61.7,222-61.7,222"/>
		<path class="st0" d="M617.4,410.7c0,0,115.1-126.4,110.2-61.5c-3.3,44.8-144.3,179.6-144.3,179.6"/>
		<path class="st1" d="M555,342.5c29.9,15.4,69,57.3,65.8,90.8c-8.3,88.5-164.8,298.7-244.1,258.4c-79.5-40.4-1.6-291.3,65.5-350
			C467.7,319.4,525,327,555,342.5L555,342.5z"/>
		<path class="st2" d="M502.6,632.4l-151.4-78.8c-17.2,49.6-17.8,96.6,23.9,137.1C429.4,704.6,467.9,673.7,502.6,632.4L502.6,632.4z
			"/>
		<path class="st3" d="M554.7,342.6c29.9,15.4,69,57.3,65.8,90.8c-8.3,88.5-164.8,298.7-244.1,258.4c-79.5-40.4-1.6-291.3,65.5-350
			C467.4,319.5,524.6,327.1,554.7,342.6L554.7,342.6z"/>
		<path class="st3" d="M506,632.3l-157.3-80.7"/>
		<path class="st4" d="M476.9,430.3c-7.4,14.2-1.8,31.7,12.4,39.1c14.2,7.4,31.7,1.8,39.1-12.4c0-0.1,0.1-0.2,0.1-0.3
			c7.4-14.2,1.8-31.7-12.4-39.1c-14.2-7.4-31.7-1.8-39.1,12.4C477,430.1,477,430.2,476.9,430.3z"/>
		<path class="st5" d="M439,504.2c-7.4,14.2-1.8,31.7,12.4,39.1c14.2,7.4,31.7,1.8,39.1-12.4c0-0.1,0.1-0.2,0.1-0.3
			c7.4-14.2,1.8-31.7-12.4-39.1c-14.2-7.4-31.7-1.8-39.1,12.4C439.1,504,439.1,504.1,439,504.2z"/>
	</g>
	<path class="st6" d="M485.6,333.9l82.8-50.6"/>
	<path class="st6" d="M457.7,319.6l42.4-82.7"/>
	<path class="st6" d="M429.8,305.3l-7.2-96.8"/>
</g>
</svg>
